<?xml version="1.0" encoding="iso-8859-1"?>
<!-- Generator: Adobe Illustrator 16.0.0, SVG Export Plug-In . SVG Version: 6.00 Build 0)  -->
<!DOCTYPE svg PUBLIC "-//W3C//DTD SVG 1.1//EN" "http://www.w3.org/Graphics/SVG/1.1/DTD/svg11.dtd">
<svg version="1.1" id="Capa_1" xmlns="http://www.w3.org/2000/svg" xmlns:xlink="http://www.w3.org/1999/xlink" x="0px" y="0px"
	 width="419.096px" height="419.096px" viewBox="0 0 419.096 419.096" style="enable-background:new 0 0 419.096 419.096;"
	 xml:space="preserve">
<g>
	<path d="M343.198,149.837c-20.082-26.4-47.052-46.207-78.256-56.942c0,0-0.941-0.309-0.941-2.017c0-8.502,0-34.009,0-34.009h10.386
		c11.122,0,20.17-9.049,20.17-20.171V20.17c0-11.121-9.048-20.17-20.17-20.17H144.709c-11.122,0-20.17,9.049-20.17,20.17v16.528
		c0,11.122,9.048,20.171,20.17,20.171h10.386c0,0,0,25.677,0,34.675c0,1.083-1.483,1.542-1.483,1.542
		c-31.204,10.737-57.633,30.349-77.716,56.75c-22.344,29.373-34.155,64.455-34.155,101.453c0,92.529,75.278,167.807,167.807,167.807
		s167.807-75.277,167.807-167.807C377.355,214.292,365.543,179.21,343.198,149.837z M167.907,109.472l5.922-1.736
		c0,0,1.265-0.358,1.265-2.067c0-9.018,0-51.52,0-67.031c0-0.833-0.72-1.769-2.126-1.769c-6.797,0-27.188,0-27.188,0
		c-0.07,0-1.242,0.05-1.242-0.825V21.043c0-0.948,0.524-1.061,1.054-1.061c32.183,0,128.458,0.019,128.458,0.019
		c0.438,0,0.505,0.315,0.505,0.773v15.724c0,0.07-0.025,0.372-0.416,0.372c0,0-20.719,0-27.859,0c-2.083,0-2.28,1.258-2.28,3.05
		c0,14.988,0.137,55.219,0,65.188c-0.033,2.375,1.375,2.662,1.375,2.662l5.812,1.704c36.552,10.715,66.654,35.11,85.354,66.552
		c0.638,1.07,1.129,3.234-2.538,3.234H86.172c-5.167,0-3.917-2.748-3.1-4.102C101.808,144.134,131.691,120.089,167.907,109.472z
		 M209.548,399.097c-81.501,0-147.807-66.306-147.807-147.806c0-17.375,1.899-30.812,7.634-46.583c0,0,1.047-3.45,3.921-3.45
		c68.805,0,271.042,0,271.042,0c3.833,0,4.776,1.67,5.064,2.51c5.168,15.049,7.952,31.066,7.952,47.523
		C357.355,332.791,291.047,399.097,209.548,399.097z"/>
	<circle cx="130.332" cy="270.994" r="34.893"/>
	<circle cx="194.078" cy="327.455" r="22.841"/>
</g>
<g>
</g>
<g>
</g>
<g>
</g>
<g>
</g>
<g>
</g>
<g>
</g>
<g>
</g>
<g>
</g>
<g>
</g>
<g>
</g>
<g>
</g>
<g>
</g>
<g>
</g>
<g>
</g>
<g>
</g>
</svg>
